<?xml version="1.0" encoding="UTF-8"?>
<svg id="Layer_2" data-name="Layer 2" xmlns="http://www.w3.org/2000/svg" viewBox="0 0 1087.94 1055.55">
  <g id="Layer_1-2" data-name="Layer 1">
    <g>
      <path d="m1056.61,725.28c-13.7,5.82-27.99,11.13-42.72,15.95-5.09,3.1-10.18,6.15-15.27,9.16,12.39-1.88,24.76-3.94,37.1-6.21,7.06-6.16,14.03-12.45,20.89-18.89Z"/>
      <path d="m1052.58,744.4c-1.39.28-2.79.57-4.18.84-8.9,11-18.64,21.63-29.04,31.86,3.2-1.46,6.38-2.94,9.56-4.44,7.87-9.17,15.76-18.59,23.66-28.27Z"/>
      <path d="m864.94,786.72c7.71-5.38,15.36-10.85,22.98-16.4-3.71.57-7.42,1.12-11.13,1.65-21.68,13.13-43.73,25.57-65.6,37.19,18.05-7.03,35.99-14.48,53.76-22.44Z"/>
      <path d="m1012.16,780.36c11.6-10.69,22.8-22.14,33.46-34.58-2.31.45-4.63.89-6.95,1.33-2.29,1.47-4.59,2.94-6.89,4.39-17.21,15.01-35.29,29.52-53.85,43.44,11.49-4.67,22.91-9.52,34.22-14.58Z"/>
      <path d="m1063.81,730.47c-2.83,1.93-5.66,3.84-8.5,5.74-1.22,1.65-2.44,3.29-3.68,4.9,1.45-.3,2.9-.59,4.35-.89,2.61-3.22,5.22-6.47,7.83-9.75Z"/>
      <path d="m902.88,763.37c-.63.47-1.27.94-1.9,1.41,3.8-.65,7.6-1.34,11.4-2.03-3.18.22-6.34.42-9.5.61Z"/>
      <path d="m905.71,767.42c-3.58.62-7.16,1.22-10.74,1.79-4.73,3.47-9.49,6.9-14.27,10.29,8.38-3.91,16.72-7.93,25.01-12.09Z"/>
      <path d="m1002.48,744.83c-12.02,3.67-24.3,7.04-36.76,10.12,8.62-1.08,17.24-2.24,25.84-3.49,3.65-2.19,7.29-4.4,10.92-6.62Z"/>
      <path d="m1017.15,780.08c2.53-1.42,5.05-2.86,7.57-4.3-2.44,1.09-4.88,2.17-7.3,3.22-.75.73-1.5,1.45-2.26,2.18.66-.37,1.33-.72,1.99-1.09Z"/>
      <path d="m896.89,763.71s-.08,0-.12,0c-3.76.99-7.51,1.96-11.24,2.91-.5.31-1,.61-1.49.92,3.28-.51,6.55-1.05,9.83-1.59,1.01-.75,2.02-1.49,3.03-2.24Z"/>
      <path d="m1051.44,738.78c-1.7,1.13-3.41,2.25-5.12,3.37.94-.18,1.88-.35,2.82-.54.77-.93,1.53-1.88,2.3-2.83Z"/>
      <path d="m725.25,99.23c14.94-.21,30.19-.17,45.75.15-38.32-14.17-77.12-27.05-116.39-38.3-27.33-4.11-54.86-6.93-82.44-7.57,52.1,11.8,104.59,28.07,153.07,45.72Z"/>
      <path d="m947.71,759.84c-1.81.18-3.62.35-5.43.52-3.5.75-7.02,1.48-10.54,2.2-27.47,17.86-56,34.64-84.42,50.08,9.62-.69,19.23-1.48,28.83-2.36,24.27-16.01,48.15-32.79,71.56-50.43Z"/>
      <path d="m805.72,100.51c8.8.4,17.68.87,26.67,1.43-.2-.08-.39-.16-.59-.24-17.82-5.28-35.74-10.26-53.73-14.9,9.44,4.51,18.68,9.1,27.65,13.71Z"/>
      <path d="m764.16,80.28c15.23,3.87,30.35,8.02,45.24,12.38-39.66-15.74-77.67-29.31-114.07-40.82,23.4,8.52,46.58,18.21,68.83,28.45Z"/>
      <path d="m750.34,76.85c-21.72-9.27-43.72-17.89-66-25.71-2.75-.96-5.5-1.9-8.26-2.83,16.48,7.32,32.19,14.87,46.56,22.2,9.25,2,18.49,4.12,27.71,6.35Z"/>
      <path d="m854.9,793.65c-17.21,7.06-34.13,13.4-50.32,18.99-1.71.9-3.42,1.79-5.13,2.68,8.26-.33,16.52-.74,24.78-1.21,10.29-6.68,20.52-13.5,30.67-20.46Z"/>
      <path d="m838.06,814.99c-3.69.17-7.36.32-11,.45-23.4,14.83-46.74,28.57-69.28,41.06,27.1-13.16,53.9-26.96,80.29-41.51Z"/>
      <path d="m1079.32,702.9c-1.29.51-2.58,1.04-3.87,1.55-.96,1.82-1.94,3.62-2.94,5.4,2.29-2.3,4.56-4.61,6.81-6.95Z"/>
      <path d="m1076.91,713.82c3.68-4.74,7.35-9.53,11.03-14.38-1.21.49-2.4.96-3.61,1.45-5.36,5.77-10.88,11.48-16.56,17.14,3.06-1.36,6.1-2.77,9.13-4.2Z"/>
      <path d="m1010.28,782.07c-11.25,4.78-22.21,9.16-32.64,13.09-1.01.76-2.03,1.51-3.04,2.26,5.1-.87,10.2-1.78,15.29-2.73,5.14-2.65,10.26-5.35,15.35-8.1,1.69-1.49,3.37-3.01,5.04-4.53Z"/>
      <path d="m1057.84,730.57c2.08-2.78,4.12-5.61,6.12-8.5-.17.08-.34.15-.51.23-5.3,5.18-10.72,10.32-16.25,15.4,3.55-2.36,7.1-4.73,10.64-7.13Z"/>
      <path d="m916.77,765.45c-15.87,8.03-31.94,15.48-47.88,22.33-13.02,9-26.15,17.68-39.27,26.03,3.98-.24,7.97-.5,11.95-.77,27.84-15.44,55.22-31.69,82.02-48.88-2.27.44-4.54.87-6.81,1.29Z"/>
      <path d="m979.33,800.07c-3.58.62-7.16,1.22-10.74,1.79-4.73,3.47-9.49,6.9-14.27,10.29,8.38-3.91,16.72-7.93,25.01-12.08Z"/>
      <path d="m1050.41,714.16c-24.2,9.17-47.94,17.55-71.24,25.18-5.32,4.34-10.7,8.64-16.13,12.88,16.46-3.89,32.85-8.26,49.06-13.33,12.88-8.02,25.65-16.26,38.32-24.73Z"/>
      <path d="m1070.92,711.43c1.39-2.24,2.75-4.5,4.08-6.81-3.66,1.45-7.31,2.88-10.95,4.3-13.23,9.02-26.64,17.74-40.12,26.13,12.59-4.24,25.05-8.93,37.34-14.18,3.25-3.11,6.47-6.25,9.66-9.44Z"/>
      <path d="m956.82,752.94c4.62-3.58,9.23-7.19,13.82-10.84-5.28,1.7-10.55,3.36-15.78,4.98-5.08,3.5-10.2,6.97-15.37,10.39,5.32-1.12,10.64-2.28,15.96-3.49.46-.35.92-.69,1.38-1.04Z"/>
      <path d="m931.23,754.17c-6.89,2-13.73,3.93-20.53,5.8-.78.3-1.55.6-2.32.89,4.07-.33,8.14-.68,12.21-1.05,3.56-1.86,7.11-3.74,10.64-5.64Z"/>
      <path d="m938.73,754.32c1.24-.82,2.46-1.66,3.7-2.48-4.36,2.43-8.76,4.81-13.18,7.15.91-.09,1.81-.17,2.72-.26,2.25-1.47,4.51-2.93,6.76-4.41Z"/>
      <path d="m908.62,760.54c-.53.14-1.06.29-1.59.43.22-.02.44-.04.66-.06.31-.13.62-.25.93-.38Z"/>
      <path d="m1070.78,721.68c1.12-1.43,2.24-2.87,3.36-4.3-2.83,1.35-5.69,2.68-8.58,3.98-1.57,2.45-3.18,4.84-4.81,7.21,3.35-2.29,6.69-4.58,10.03-6.9Z"/>
      <path d="m675.83,64.52c34.41,10.75,67.84,22.71,98.94,34.94,9.01.21,18.13.51,27.35.9-11.83-5.69-23.74-11.21-35.73-16.54-19.43-4.85-38.96-9.3-58.58-13.31-10.61-2.13-21.27-4.14-31.97-5.99Z"/>
      <path d="m368.73,780.22c-1.01-1.17-2.02-2.34-3.05-3.51,4.74,6.45,9.04,12.66,12.85,18.45-.34-1.49-.68-2.98-1.04-4.48-2.85-3.48-5.77-6.97-8.76-10.46Z"/>
      <path d="m343.07,762.56c-.21-.51-.4-1.03-.61-1.54-2.16-5.22-4.48-10.48-7.01-15.79-6.07-5.68-12.55-11.35-19.54-16.99-2.86-2.23-5.75-4.46-8.7-6.69-11.05-7.02-21.53-14.4-31.42-22.11-.61-.4-1.21-.79-1.83-1.19,24.82,20.23,48.14,42.34,69.11,64.3Z"/>
      <path d="m332.86,736.59c.2.36.38.73.57,1.09,4.25,4.54,8.36,9.17,12.32,13.81,8.74,7.49,17.26,15.14,25.54,22.86-3.83-8.26-8.17-16.64-13.29-25.15-8.65-4.02-17.03-8.23-25.14-12.63Z"/>
      <path d="m361.51,772c-7-7.82-14.46-15.69-22.65-23.55,2.81,5.92,5.37,11.85,7.68,17.75,1.02,1.08,2.03,2.16,3.04,3.24,10.03,8.72,19.77,17.65,29.17,26.62-.05-.2-.1-.41-.14-.62-5.38-7.8-11.05-15.61-17.09-23.44Z"/>
      <path d="m372.65,777.34c-.24-.23-.47-.45-.71-.68-7.03-6.59-14.24-13.2-21.7-19.8,2.18,2.64,4.3,5.28,6.36,7.9,7.1,7.49,13.81,15.12,20.1,22.74-.17-.68-.34-1.35-.51-2.03-1.13-2.7-2.31-5.41-3.54-8.13Z"/>
      <path d="m380.46,804.28c-.39-2-.81-4-1.24-6.01-2.48-2.39-4.98-4.77-7.51-7.16-4.67-4.38-9.43-8.77-14.28-13.16,8.13,8.93,15.82,17.75,23.03,26.33Z"/>
      <path d="m339.45,745.27c-1.59-1.79-3.21-3.59-4.85-5.38.66,1.27,1.31,2.55,1.94,3.82,1.92,1.59,3.83,3.2,5.73,4.81-.94-1.08-1.86-2.17-2.82-3.25Z"/>
      <path d="m330.64,735.61c-.15-.16-.29-.31-.44-.47-5.51-3.03-10.9-6.16-16.17-9.36,6.57,5.01,13.06,10.16,19.45,15.41-.92-1.86-1.86-3.72-2.85-5.59Z"/>
      <path d="m351.7,759.68c-1.59-1.93-3.2-3.87-4.83-5.8-3.02-2.64-6.09-5.29-9.2-7.92.03.05.06.11.08.16,4.79,4.43,9.45,8.96,13.95,13.56Z"/>
      <path d="m382.89,797.36c.51,1.38,1,2.75,1.48,4.12,2.41,2.34,4.8,4.68,7.16,7.03-2.81-3.71-5.69-7.42-8.65-11.14Z"/>
      <path d="m360.06,750.16c4.82,7.86,9.12,15.83,12.95,23.83-2.07-6.99-4.4-14.04-7.02-21.16-1.99-.88-3.96-1.77-5.92-2.67Z"/>
      <path d="m380.33,797.57c.33.32.65.63.98.95-.54-1.47-1.1-2.95-1.67-4.42.24,1.16.47,2.32.69,3.47Z"/>
      <path d="m380.8,805.99c-10.48-12.19-21.49-24.43-33.08-36.69,1.91,5.05,3.64,10.07,5.2,15.03,11.1,12.6,21.27,24.85,30.35,36.35-.71-4.86-1.53-9.76-2.48-14.69Z"/>
      <path d="m984.5,755.65c-10.2,1.33-20.39,2.52-30.51,3.56-23.36,17.83-47.57,34.73-71.84,50.49,1.31-.13,2.62-.24,3.93-.37,33.26-16.71,66.13-34.55,98.43-53.68Z"/>
      <path d="m349.85,780.86c-1.59-4.7-3.29-9.43-5.14-14.19-11.85-10.31-24.35-20.58-37.81-30.71,15.37,14.94,29.78,30.12,42.95,44.9Z"/>
      <path d="m385.97,812.05c-1.31-1.55-2.63-3.1-3.96-4.64.73,4.78,1.29,9.41,1.72,13.85,2.72,3.45,5.33,6.83,7.84,10.13-1.64-6.39-3.51-12.83-5.6-19.33Z"/>
      <path d="m380.72,799.72c.37,2.06.72,4.09,1.04,6.1,1.22,1.45,2.41,2.9,3.6,4.33-.97-2.96-2-5.94-3.07-8.92-.52-.5-1.04-1.01-1.57-1.51Z"/>
      <path d="m397.09,967.51c6.29,3.05,12.83,5.96,19.66,8.68-3.92-1.46-7.73-2.99-11.47-4.58,6.88,3.4,13.89,6.74,21.06,10,4.01,1.81,8.07,3.59,12.19,5.33-8.28-4.8-16.5-9.77-24.64-14.88-8.02-2.61-15.99-5.34-23.91-8.22,2.35,1.23,4.72,2.45,7.11,3.67Z"/>
      <path d="m998.25,796.61c-68.5,59.54-157.61,104.15-227.99,130.49,56.63-24.33,112.39-53.01,165.9-88.3,19.01-12.63,37.85-26.07,56-41.03-.59.11-1.18.22-1.76.33-15.87,8.03-31.94,15.48-47.88,22.33-54.58,37.71-111.1,70.02-160.34,94.67,49.92-26.9,98.93-56.3,146.35-88.8-25.14,10.32-49.68,19.1-72.24,26.24,27.7-10.07,55.18-21.05,82.27-33.17,7.71-5.38,15.36-10.85,22.98-16.4-8.6,1.32-17.2,2.53-25.8,3.64-21.49,11.17-42.38,21.31-62.1,30.3,19.33-9.53,38.54-19.43,57.59-29.73-17.02,2.11-33.97,3.82-50.66,5.15-2.33,1.08-4.64,2.14-6.94,3.19,2.1-1.04,4.2-2.09,6.3-3.14-.74.06-1.48.12-2.22.17-43.69,28.13-87.42,52.56-126.55,72.15,41.03-22.11,81.44-45.91,120.86-71.72-9.64.7-19.18,1.29-28.59,1.76-32.72,17.66-65.21,33.52-95.63,47.22-13.46,7.31-26.61,14.16-39.26,20.5,9.55-5.14,19.06-10.39,28.53-15.72-3.58,1.58-7.12,3.12-10.63,4.63,4.74-2.2,9.47-4.42,14.19-6.65,27.44-15.52,54.56-31.85,81.24-49.09-8.17.27-16.21.45-24.1.56-33.08,17.13-65.5,32.33-95.33,45.18,30.3-14.05,60.26-28.87,89.77-44.56-3.22,1.06-6.41,2.09-9.55,3.09,3.31-1.2,6.62-2.42,9.93-3.65-7.73.07-15.31.07-22.71,0,8.23-.18,16.47-.44,24.7-.74.13-.05.26-.1.39-.15,25.18-13.45,50-27.54,74.4-42.35-2.42.33-4.83.65-7.25.96-21.49,11.17-42.38,21.31-62.1,30.3,19.33-9.53,38.54-19.43,57.59-29.73-3.52.44-7.03.86-10.54,1.26-201.88,44.86-362.86,28.59-478.72-21.91,3.06,8.48,5.64,16.86,7.76,25.02,35.29,33.41,65.8,67.74,87.97,95.61-25.85-30.89-54.66-62.09-87.39-93.32.17.67.35,1.35.51,2.02,1.44,3.31,2.79,6.62,4.07,9.92,5.71,7.13,11.05,14.21,15.99,21.13,26.25,26.51,49.03,52.64,66.59,74.71-19.05-22.76-39.71-45.69-62.34-68.67,7.48,10.83,13.95,21.14,19.28,30.44-7.39-11.67-15.37-23.44-24.09-35.3-3.74-3.75-7.54-7.51-11.4-11.27,1.12,3.27,2.16,6.53,3.14,9.75,7.92,9.7,15.17,19.01,21.62,27.66-6.8-8.64-13.84-17.31-21.13-26.01,1.88,6.37,3.5,12.64,4.86,18.75.77,1.02,1.54,2.04,2.29,3.05-.74-.94-1.49-1.89-2.24-2.83,3.15,14.19,4.97,27.51,5.74,39.25-1.69-13.72-4.26-27.71-7.9-41.98-2.59-3.25-5.22-6.5-7.87-9.75.19,2.1.37,4.17.5,6.19-.27-2.22-.58-4.44-.9-6.67-9.44-11.54-19.32-23.13-29.7-34.76,6.78,22.21,10.25,43.23,11.4,60.74-2.55-20.72-7.1-42.05-14.35-64.03-13.09-14.53-26.95-29.11-41.71-43.7-3.26-3.2-6.56-6.41-9.91-9.62-5.5-4.01-11.14-7.99-16.97-11.94-11.64-7.85-24.09-15.53-37.53-22.71,13.66,7.05,26.3,14.72,38.2,22.54,4.3,2.86,8.58,5.8,12.83,8.81-21.34-20.23-44.87-40.52-72.85-60.17-11.33-7.92-23.5-15.7-36.72-23,13.46,7.18,25.82,14.96,37.41,22.85,28.07,19.34,54.89,42.04,79.38,65.51,12.74,9.29,25.22,19.16,37.33,29.36-5.6-5.8-11.32-11.6-17.19-17.41-16.79-16.51-34.73-33.16-55.05-49.57-7.38-4.59-15.07-9.07-23.12-13.37,7.4,3.82,14.48,7.82,21.33,11.93-9.26-7.42-19.02-14.8-29.38-22.08-11.33-7.92-23.5-15.7-36.72-23,13.46,7.18,25.82,14.96,37.41,22.85,11.6,7.99,22.99,16.57,34.09,25.52.38.23.76.47,1.14.7-13.77-10.96-26.38-22.57-37.81-34.72-34.98-22.35-65.87-45.66-89.38-65.42,26.22,20.88,54.65,41.53,85.86,61.63C46.48,455.9,184.02,109.35,719.76,99.32c-45.66-15.7-91.98-29.46-138.92-40.7-7.73-1.82-15.48-3.57-23.26-5.25-10.09.05-20.19.41-30.29,1.13-20.12,1.52-40.19,4.73-59.54,10.69,19.17-6.6,39.28-10.14,59.42-12.15,7.35-.65,14.85-1.1,22.48-1.35-48.92-10.18-98.71-16.95-148.69-15.03-20.16.85-40.32,3.4-59.87,8.71,19.38-5.96,39.59-8.84,59.79-10.18,49.41-2.76,105.31,3.98,162,16.25,23.39-.11,47.87,1.46,72.91,4.38-13.79-3.75-27.62-7.31-41.52-10.63-58.86-13.83-119.24-24.29-179.88-21.96-20.16.85-40.32,3.4-59.87,8.71,19.38-5.96,39.59-8.84,59.79-10.18,72.5-4.05,158.97,12.36,241.39,36.65,21.99,3.13,44.3,7.22,66.59,12.02-18.95-9.13-38.06-17.78-57.32-25.8-35.87-11.61-72.67-20.79-110.33-23.36-14.79-.97-29.71-.68-44.41,1.64,14.6-2.98,29.61-3.59,44.48-3.11,13.12.6,26.73,2.16,40.65,4.52C-544.85-239.39,154.83,1748.94,1009.99,794.26c-3.9.81-7.82,1.59-11.74,2.35ZM151.99,329.29c-4.67,12.43-7.4,25.6-7.92,38.94-.16-13.36,2.29-26.72,6.53-39.43,28.24-80.78,130.56-147.42,205.41-182.37-72.53,37.89-174.2,103.91-204.02,182.86Zm6.88-158.95c52.34-67.7,170.48-98.57,252.54-108.05-80.79,13.01-198.12,43.48-251.38,108.95-8.36,10.31-15.12,21.94-19.83,34.44,4.07-12.73,10.62-24.62,18.67-35.34Zm-66.54,254.25c-2.25-13.17-1.92-26.75.29-39.97,15.27-84.2,105.9-166.02,174.37-212.24-65.71,48.77-155.81,129.86-172.92,212.51-2.67,13.01-3.31,26.44-1.73,39.7Zm72.48,395.66c42.55,26.31,77.54,63.03,119.96,89.53,18.54,11.87,37.9,22.27,57.8,31.53-3.61-3.01-7.18-6.05-10.68-9.12-73.31-45.24-140.2-100.06-186.71-143.78,44.01,39.28,92.22,77.93,145.96,115.04,10.87,7.46,21.98,14.87,33.41,22.19-3.55-3.22-7.02-6.45-10.42-9.68-24.52-19.19-46.91-40.05-66.31-60.3-41.17-30.71-77.84-62.08-106.67-89.19,30.93,27.61,63.94,54.9,99.49,81.56-12.71-13.7-23.99-26.98-33.51-39.13,12.85,15,26.47,29.94,41.06,44.76,12.65,9.37,25.62,18.65,38.93,27.84,7.22,4.95,14.55,9.89,22,14.79-32.94-26.93-62.14-53.79-85.67-77.39,30.97,29.44,64.31,58.57,100.59,87.04,19.46,12.36,39.85,24.41,61.61,35.81-56.57-40.4-106.73-84.85-143.23-121.47,41.71,39.65,87.71,78.74,139.4,116.41,5.08,3.68,10.22,7.35,15.42,11,8.16,4.1,16.5,8.11,25.07,12,17.09,7.71,35.15,14.89,54.33,20.95-19.41-5.78-37.72-12.88-55.12-20.45-6.29-2.78-12.58-5.69-18.86-8.71,13.79,9.57,28.07,19.02,43.02,28.22,7.49,2.27,14.98,4.46,22.49,6.59,13.79,4.06,34.21,9.26,48.26,12.9-11.69-2.53-24.83-5.53-36.52-8.44-9.39-2.31-18.78-4.76-28.15-7.34,19.12,11.53,39.37,22.63,61.12,33.02,16.71,7.93,34.45,15.35,53.38,21.68-19.19-6.06-37.18-13.4-54.21-21.2-22-10.23-43.84-22.03-65.19-34.86-9.1-2.56-18.17-5.26-27.2-8.12,8.99,5.66,18.21,11.23,27.73,16.68,10.72,4.31,21.8,8.34,33.28,11.97-10.51-3.13-20.68-6.65-30.57-10.42,13.95,7.92,28.51,15.59,43.82,22.9,16.71,7.93,34.45,15.35,53.38,21.68-19.19-6.06-37.18-13.4-54.21-21.2-17.1-7.95-34.1-16.85-50.85-26.44-5.65-2.26-11.21-4.58-16.68-6.96-14.67-6.49-29.32-13.66-43.85-21.35-9.18-3.47-18.28-7.14-27.26-11.04,15.26,12.14,31.7,23.85,50.34,34.22,7.98,4.41,16.42,8.52,25.38,12-9.08-3.32-17.63-7.39-25.75-11.72-18.14-9.83-36.18-22.34-53.29-35.96-38.77-17.1-75.5-38.42-108.25-65.74-25.91-21.01-50.23-43.86-78.06-62.28Zm401.46,218.97c-95.79,22.18-249.37-70.27-331.91-118.39,85.02,44.96,235.56,136.51,331.73,117.62,7.77-1.69,15.34-4.25,22.48-7.77-7,3.8-14.54,6.65-22.31,8.54Z"/>
      <path d="m305.73,906.75c19.75,16.45,41.37,32.6,66.67,47.48,10.81,4.36,21.75,8.44,32.76,12.29-29.35-18.9-57.51-39.45-83.6-60.19-15.75-9.88-31.18-20.19-46.15-30.7,9.65,10.47,19.73,20.86,30.31,31.11Z"/>
      <path d="m1013.8,789.97c2.46-2.77,4.92-5.55,7.38-8.37-5.24,2.97-10.53,5.88-15.85,8.73-.67.6-1.34,1.21-2.02,1.81.16-.03.31-.06.47-.09,3.34-.68,6.68-1.37,10.02-2.07Z"/>
      <path d="m1030.59,748.58c-13.11,2.33-26.3,4.38-39.46,6.19-35.73,20.76-71.16,39.08-103.88,54.45,17.28-1.74,34.53-3.83,51.75-6.26,31.02-16.99,61.61-35.06,91.59-54.38Z"/>
      <path d="m987.81,783.33c8.73-6.76,17.41-13.64,26.01-20.68-23.39,14.25-46.87,27.49-69.77,39.59,7.82-1.14,15.63-2.36,23.43-3.65,6.81-5.02,13.6-10.1,20.33-15.27Z"/>
      <path d="m411.47,968.7c9.55,3.26,19.14,6.36,28.78,9.32-16.49-10.12-32.67-20.82-48.38-31.87-18.85-9.47-37.55-19.89-55.88-30.95,8.78,6.74,17.73,13.44,26.86,20.09,15.58,11.27,31.69,22.48,48.63,33.4Z"/>
      <path d="m275.19,875.47c-6.21-4.36-12.34-8.76-18.38-13.18,11.8,11.64,24.2,23.19,37.33,34.62,1.62,1.41,3.26,2.81,4.91,4.22-8.77-8.92-16.79-17.59-23.86-25.65Z"/>
      <path d="m337.01,935.32c1.54,1.33,3.1,2.65,4.66,3.97,1.43,1.2,2.87,2.4,4.32,3.6,5.17,2.36,10.37,4.65,15.61,6.87-8.26-4.67-16.46-9.5-24.59-14.44Z"/>
      <path d="m321.78,921.83c2.58,2.36,5.2,4.7,7.84,7.04,5.21,3.3,10.49,6.57,15.85,9.81-8.07-5.39-15.97-11.03-23.69-16.85Z"/>
    </g>
  </g>
</svg>